<svg id="logo" xmlns="http://www.w3.org/2000/svg" xmlns:xlink="http://www.w3.org/1999/xlink" width="282.581" height="78.559" viewBox="0 0 282.581 78.559">
  <defs>
    <clipPath id="clip-path">
      <rect id="長方形_10050" data-name="長方形 10050" width="75.4" height="75.4" fill="none"/>
    </clipPath>
  </defs>
  <g id="グループ_11977" data-name="グループ 11977" transform="translate(-10 -7.196)">
    <path id="合体_23" data-name="合体 23" d="M-738.437,23.825a3.851,3.851,0,0,1-1.221-2.9V9.28h-2.15a3.557,3.557,0,0,1,.7,2.13,3.818,3.818,0,0,1-1.181,2.731c-.8.8-1.79,1.7-2.931,2.658-1.123.945-2.29,1.885-3.467,2.795-1.193.922-2.35,1.74-3.441,2.431a4.469,4.469,0,0,1-2.5.768,4.854,4.854,0,0,1-.557-.033,3.9,3.9,0,0,1-2.8-1.659c-.012-.016-.023-.032-.034-.049a3.922,3.922,0,0,1-.578-3.014,3.746,3.746,0,0,1,1.819-2.486c.914-.542,1.952-1.217,3.083-2.005s2.253-1.631,3.333-2.506c.805-.652,1.514-1.264,2.114-1.827a18.714,18.714,0,0,1-4.976-.864,6.942,6.942,0,0,1-4.27-3.8,16.143,16.143,0,0,1-1.084-6.519v-18.55a3.7,3.7,0,0,1,1.172-2.8,3.854,3.854,0,0,1,2.66-1.034,3.854,3.854,0,0,1,2.66,1.034,3.7,3.7,0,0,1,1.172,2.8v18.5A7.929,7.929,0,0,0-750.53.916a1.328,1.328,0,0,0,.978.761,13.836,13.836,0,0,0,3.655.363h6.791a16.521,16.521,0,0,1-3.866-.768,6.718,6.718,0,0,1-4.135-3.639,15.531,15.531,0,0,1-1.032-6.284v-6.784a15.528,15.528,0,0,1,1.032-6.284,6.633,6.633,0,0,1,4.149-3.618,22.933,22.933,0,0,1,7.131-.873h5.936a22.887,22.887,0,0,1,7.162.875,6.725,6.725,0,0,1,4.137,3.6,15.161,15.161,0,0,1,1.066,6.3V-8.65a15.161,15.161,0,0,1-1.066,6.3,6.813,6.813,0,0,1-4.123,3.623,16.285,16.285,0,0,1-3.869.77h12.964a3.376,3.376,0,0,1,2.565,1.1,3.667,3.667,0,0,1,.949,2.522,3.7,3.7,0,0,1-.928,2.471,3.334,3.334,0,0,1-2.586,1.148h-9.5c.585.544,1.269,1.133,2.042,1.759,1.082.876,2.213,1.728,3.363,2.535s2.193,1.488,3.109,2.03a3.643,3.643,0,0,1,1.795,2.489,3.848,3.848,0,0,1-.692,3,3.863,3.863,0,0,1-2.715,1.635,4.842,4.842,0,0,1-.68.049,4.283,4.283,0,0,1-2.362-.7l-.007,0c-1.046-.685-2.2-1.5-3.416-2.413s-2.413-1.878-3.531-2.851-2.087-1.854-2.913-2.644c-.022-.021-.042-.042-.062-.064a3.9,3.9,0,0,1-1.09-2.69,3.667,3.667,0,0,1,.669-2.13h-2.068V20.924a3.9,3.9,0,0,1-1.174,2.883,3.979,3.979,0,0,1-2.816,1.108A4,4,0,0,1-738.437,23.825Zm-.581-28.75a17.1,17.1,0,0,0,3.245.234h5.883a17.053,17.053,0,0,0,3.265-.232,1.4,1.4,0,0,0,.84-.425h-14.093A1.44,1.44,0,0,0-739.019-4.925Zm-1.3-6.921h14.967v-.5h-14.967Zm1.268-7.282a1.871,1.871,0,0,0-.767.285h13.926a1.9,1.9,0,0,0-.76-.286,18.63,18.63,0,0,0-3.242-.212h-5.883A19.175,19.175,0,0,0-739.048-19.128Zm-77.161,43.062a3.4,3.4,0,0,1-1.148-2.64V12.062a37.839,37.839,0,0,1-1.753,4.465,3.668,3.668,0,0,1-1.835,1.846,3.531,3.531,0,0,1-2.594.105l-.03-.011a3.338,3.338,0,0,1-1.951-1.832,3.176,3.176,0,0,1-.02-2.7l.013-.029a34.118,34.118,0,0,0,1.775-4.517c.548-1.712.981-3.3,1.287-4.733,0-.01,0-.02.006-.029A3.455,3.455,0,0,1-820.944,2.4c.034-.022.069-.042.1-.062l-1.146.1-.05,0a3.911,3.911,0,0,1-2.7-.772,3.558,3.558,0,0,1-1.3-2.468c0-.028-.005-.055-.007-.083a3.411,3.411,0,0,1,.968-2.681,3.782,3.782,0,0,1,2.534-1.071c.391-.038.795-.057,1.2-.057.112,0,.227,0,.342-.006.472-.656.978-1.39,1.51-2.188.456-.685.917-1.4,1.377-2.134-.378-.275-.785-.562-1.216-.859-.9-.62-1.807-1.247-2.688-1.863-.853-.6-1.594-1.089-2.2-1.46a3.6,3.6,0,0,1-1.582-2.067A3.264,3.264,0,0,1-825.419-18a3.409,3.409,0,0,1,2.2-1.7,3.625,3.625,0,0,1,.876-.11,3.451,3.451,0,0,1,1.89.568l.021.014.121.08q.286-.518.589-1.081c.489-.908.959-1.794,1.4-2.632s.768-1.5,1-2.008a3.568,3.568,0,0,1,2.144-1.959,3.562,3.562,0,0,1,1.1-.175,3.78,3.78,0,0,1,1.67.4,3.3,3.3,0,0,1,1.89,2.133,3.439,3.439,0,0,1-.3,2.686c-.249.5-.559,1.084-.922,1.747a3.4,3.4,0,0,1,2.132-1.524,3.929,3.929,0,0,1,.922-.112,3.574,3.574,0,0,1,1.793.48l.027.016A3.6,3.6,0,0,1-805.185-19a3.474,3.474,0,0,1-.35,2.652c-1,1.842-2.194,3.884-3.547,6.077a3.514,3.514,0,0,1,1.647.11,3.5,3.5,0,0,1,2.055,1.73c.36.613.786,1.382,1.264,2.287s.943,1.807,1.386,2.692a6.163,6.163,0,0,1,2.93-1.98,12.134,12.134,0,0,1,1.9-.461,10.447,10.447,0,0,1-1.382-.393,5.938,5.938,0,0,1-3.493-3.1,12.275,12.275,0,0,1-.91-5.194v-1.8a12.278,12.278,0,0,1,.91-5.194,5.938,5.938,0,0,1,3.493-3.1,16.976,16.976,0,0,1,5.736-.78h6.731a16.985,16.985,0,0,1,5.737.78,5.943,5.943,0,0,1,3.493,3.1,12.292,12.292,0,0,1,.91,5.194v1.8a12.29,12.29,0,0,1-.91,5.194,5.943,5.943,0,0,1-3.493,3.1,10.355,10.355,0,0,1-1.279.371,11.961,11.961,0,0,1,2.044.485,5.934,5.934,0,0,1,3.6,3.106,12.309,12.309,0,0,1,.941,5.282V5.448a12.311,12.311,0,0,1-.941,5.283,6.032,6.032,0,0,1-3.581,3.127,18.283,18.283,0,0,1-5.989.776h-.461V15.2c0,1.186.271,1.454.274,1.456.1.063.735.383,3.1.383a10.775,10.775,0,0,0,2.428-.2,1.188,1.188,0,0,0,.662-.347,3.173,3.173,0,0,0,.476-1.283c.008-.04.018-.078.029-.117a3.124,3.124,0,0,1,2.065-2.171,4.209,4.209,0,0,1,2.565-.007,3.307,3.307,0,0,1,2.12,1.641,3.635,3.635,0,0,1,.176,2.636,7.732,7.732,0,0,1-3.432,5.37c-1.609.94-3.91,1.4-7.037,1.4a20.476,20.476,0,0,1-5.728-.645,6.05,6.05,0,0,1-3.678-2.723,9.566,9.566,0,0,1-1.051-4.862v-1.1h-.09a18.316,18.316,0,0,1-5.956-.774,6.681,6.681,0,0,1-2.146-1.205,3.443,3.443,0,0,1-.308,1.543,3.329,3.329,0,0,1-2.05,1.832,3.4,3.4,0,0,1-2.825-.069,3.655,3.655,0,0,1-1.794-2.034l-.009-.025c-.349-.984-.759-2.142-1.22-3.449V21.295a3.439,3.439,0,0,1-1.1,2.618,3.6,3.6,0,0,1-2.469.949A3.7,3.7,0,0,1-816.208,23.935Zm29.465-15.853h.461a11.2,11.2,0,0,0,2.622-.218c.348-.089.41-.22.445-.3a1.862,1.862,0,0,0,.118-.355h-3.646Zm-10.185-.515c.036.077.1.208.445.3a11.2,11.2,0,0,0,2.622.218h.09V7.213h-3.28A2.1,2.1,0,0,0-796.928,7.567Zm-8.06-3.628c0,.014.008.03.012.044.164.516.368,1.114.608,1.785,0-.105,0-.212,0-.32V3.865A3.7,3.7,0,0,1-804.989,3.939Zm-13.13-1.861a3.492,3.492,0,0,1,.762.317v-.39Zm8.734-.893c-.259.033-.521.066-.784.1v.673a3.849,3.849,0,0,1,1-.4,4.234,4.234,0,0,1,.747-.118c-.052-.117-.1-.235-.155-.354Zm22.642-.258h3.557A.791.791,0,0,0-783.305.7c-.089-.056-.708-.38-2.977-.38h-.461ZM-796.841.7a.784.784,0,0,0-.127.223h3.2v-.6h-.09C-796.152.323-796.761.653-796.841.7Zm-15.385-6.061.479-.041a3.845,3.845,0,0,1-.172-.424Q-812.071-5.588-812.226-5.357Zm25.483-6.648a6.035,6.035,0,0,0,2.671-.355.667.667,0,0,0,.08-.143h-2.751Zm-9.544-.356a5.7,5.7,0,0,0,2.516.356v-.5h-2.6A.712.712,0,0,0-796.287-12.362Zm-15.795-7.059c-.515.923-1.055,1.868-1.606,2.809-.284.486-.563.955-.836,1.4l.1.072c.363-.642.712-1.266,1.042-1.868.524-.951.987-1.812,1.381-2.561Zm25.339.737h2.531a7.857,7.857,0,0,0-2.531-.286Zm-9.385,0h2.357v-.284A7.17,7.17,0,0,0-796.128-18.683Zm-63.04,42.058a3.539,3.539,0,0,1-1.172-2.769V7.213h-.672a21.617,21.617,0,0,1-7.012-.931,7.266,7.266,0,0,1-4.366-3.911,17.315,17.315,0,0,1-1.2-7.2,17.094,17.094,0,0,1,1.265-7.389,7.265,7.265,0,0,1,4.433-3.842,22.429,22.429,0,0,1,6.879-.869h.672v-6.079a3.542,3.542,0,0,1,1.172-2.769,4.054,4.054,0,0,1,2.767-.957,4.132,4.132,0,0,1,2.82.957,3.542,3.542,0,0,1,1.171,2.769v6.079h.673a22.422,22.422,0,0,1,6.878.869,7.265,7.265,0,0,1,4.434,3.842,17.1,17.1,0,0,1,1.265,7.389,16.025,16.025,0,0,1-1.331,7.255,7.669,7.669,0,0,1-4.446,3.861,21.126,21.126,0,0,1-6.8.931h-.673V20.606a3.539,3.539,0,0,1-1.171,2.769,4.128,4.128,0,0,1-2.82.957A4.05,4.05,0,0,1-859.168,23.375Zm6.757-23.614h.673a11.938,11.938,0,0,0,3.208-.337,1.611,1.611,0,0,0,1.058-.932,8.012,8.012,0,0,0,.488-3.325,9.567,9.567,0,0,0-.435-3.517,1.3,1.3,0,0,0-.946-.812,13.784,13.784,0,0,0-3.373-.319h-.673Zm-11.921-8.923a1.375,1.375,0,0,0-.983.836,9.083,9.083,0,0,0-.452,3.493,9.681,9.681,0,0,0,.423,3.417,1.3,1.3,0,0,0,.932.839,13.044,13.044,0,0,0,3.4.338h.672V-9.482h-.672A13.493,13.493,0,0,0-864.332-9.163Zm-21.185,30.849a3.624,3.624,0,0,1-1.867-2.75,4.2,4.2,0,0,1,.682-2.914c.7-1.114,1.508-2.437,2.411-3.931s1.783-3.025,2.616-4.553c.821-1.5,1.477-2.833,1.95-3.948.007-.018.015-.035.023-.053a4.336,4.336,0,0,1,2.146-2.094,3.589,3.589,0,0,1,1.548-.359,3.659,3.659,0,0,1,1.819.5,3.812,3.812,0,0,1,1.961,2.237A4.034,4.034,0,0,1-872.4,6.7a34.221,34.221,0,0,1-1.4,3.127c-.591,1.183-1.255,2.425-1.97,3.7s-1.421,2.485-2.114,3.64-1.308,2.163-1.839,3.012a4.4,4.4,0,0,1-2.455,1.936,3.916,3.916,0,0,1-1.209.194A4.136,4.136,0,0,1-885.517,21.686ZM-880.076-2.3c-.757-.55-1.747-1.233-2.942-2.03-1.18-.787-2.241-1.443-3.155-1.95l-.016-.009a3.562,3.562,0,0,1-1.687-2.244,3.5,3.5,0,0,1,.477-2.887,3.728,3.728,0,0,1,2.411-1.8,4.18,4.18,0,0,1,.856-.089,4.949,4.949,0,0,1,1.919.413l.019.008A18.242,18.242,0,0,1-880-11.7c.786.481,1.572.979,2.339,1.479a20.033,20.033,0,0,1,2,1.462,3.949,3.949,0,0,1,1.517,2.458,3.853,3.853,0,0,1-.635,2.957c-.012.017-.024.033-.037.05a4.138,4.138,0,0,1-2.357,1.617,3.445,3.445,0,0,1-.814.1A3.5,3.5,0,0,1-880.076-2.3Zm2.791-11.848-.032-.023c-.758-.551-1.748-1.235-2.945-2.032s-2.236-1.45-3.121-1.961a3.667,3.667,0,0,1-1.7-2.2,3.43,3.43,0,0,1,.456-2.952,3.9,3.9,0,0,1,2.447-1.775,4.156,4.156,0,0,1,.851-.089,4.661,4.661,0,0,1,1.894.423,18.345,18.345,0,0,1,2.192,1.18c.792.487,1.586,1,2.36,1.519s1.439.987,1.983,1.385l.04.031a4.094,4.094,0,0,1,1.493,2.426,3.657,3.657,0,0,1-.671,3.02,3.909,3.909,0,0,1-2.322,1.643,3.477,3.477,0,0,1-.818.1A3.678,3.678,0,0,1-877.285-14.145Z" transform="translate(995.632 34.196)" fill="#fff"/>
    <path id="合体_22" data-name="合体 22" d="M-884.635-12.408a6.766,6.766,0,0,1-2.5-2.759A8.694,8.694,0,0,1-888-19.125a8.747,8.747,0,0,1,.866-3.964,6.813,6.813,0,0,1,2.493-2.775,6.785,6.785,0,0,1,3.65-1,6.738,6.738,0,0,1,3.645,1,6.827,6.827,0,0,1,2.48,2.772A8.747,8.747,0,0,1-874-19.125a8.682,8.682,0,0,1-.868,3.958,6.782,6.782,0,0,1-2.485,2.757,6.79,6.79,0,0,1-3.639.99A6.828,6.828,0,0,1-884.635-12.408Zm2.438-9.579a2.374,2.374,0,0,0-.838,1.012,4.345,4.345,0,0,0-.35,1.85,4.3,4.3,0,0,0,.35,1.833,2.374,2.374,0,0,0,.838,1.012,2.118,2.118,0,0,0,1.205.33,2.116,2.116,0,0,0,1.205-.33,2.317,2.317,0,0,0,.825-1,4.392,4.392,0,0,0,.346-1.843,4.431,4.431,0,0,0-.346-1.859,2.314,2.314,0,0,0-.825-1,2.116,2.116,0,0,0-1.205-.33A2.118,2.118,0,0,0-882.2-21.987Zm179.756,9.816a4.876,4.876,0,0,1-1.98-2.079,6.521,6.521,0,0,1-.659-3.005,6.4,6.4,0,0,1,.659-2.955,5.145,5.145,0,0,1,1.9-2.081,5.2,5.2,0,0,1,2.766-.749,4.812,4.812,0,0,1,2.753.794,5.037,5.037,0,0,1,1.707,1.939,5.3,5.3,0,0,1,.575,2.388,2.41,2.41,0,0,1-.52,1.589,2.113,2.113,0,0,1,.377.93,2.262,2.262,0,0,1-.511,1.744,5.048,5.048,0,0,1-1.872,1.629,5.429,5.429,0,0,1-2.425.538A5.623,5.623,0,0,1-702.441-12.171Zm-21.511-.6a4.744,4.744,0,0,1-1.222-3.433v-4.335a2.175,2.175,0,0,1,2.248-2.3,2.183,2.183,0,0,1,2.265,2.3v4.029a1.14,1.14,0,0,0,.1.594.183.183,0,0,0,.025.023.287.287,0,0,0,.077.007c.232,0,.3-.066.343-.113a.719.719,0,0,0,.129-.494v-4.046a2.183,2.183,0,0,1,2.265-2.3,2.175,2.175,0,0,1,2.248,2.3v6.545a2.385,2.385,0,0,1-.518,1.572,2.117,2.117,0,0,1-1.662.744,2.578,2.578,0,0,1-1.19-.261,4.2,4.2,0,0,1-1.939.448A4.3,4.3,0,0,1-723.952-12.768Zm-8.005.526a3.444,3.444,0,0,1-1.19-2.921V-18.58a2.155,2.155,0,0,1-.907-.441,2.1,2.1,0,0,1-.742-1.651,2.093,2.093,0,0,1,.672-1.614,2.078,2.078,0,0,1,.977-.484v-.69a2.183,2.183,0,0,1,2.265-2.3,2.175,2.175,0,0,1,2.248,2.3v.625h.064a2.367,2.367,0,0,1,1.557.511,2.1,2.1,0,0,1,.742,1.652,2.1,2.1,0,0,1-.742,1.651,2.367,2.367,0,0,1-1.557.511h-.064v2.648a4.334,4.334,0,0,1,.921.118,1.945,1.945,0,0,1,1.442,1.991,2.077,2.077,0,0,1-1.572,2.084,5.559,5.559,0,0,1-1.457.181A4.315,4.315,0,0,1-731.957-12.243Zm-10.8,0a5.233,5.233,0,0,1-1.923-2.082,6.258,6.258,0,0,1-.672-2.93,6.316,6.316,0,0,1,.67-2.934,5.22,5.22,0,0,1,1.926-2.094,5.249,5.249,0,0,1,2.78-.756,5.087,5.087,0,0,1,3.392,1.218,2.085,2.085,0,0,1,.849,1.835,2.172,2.172,0,0,1-.92,1.593,2.212,2.212,0,0,1-1.339.484,1.934,1.934,0,0,1-.289-.023,2.95,2.95,0,0,1-1.15-.48,1.455,1.455,0,0,1-.136-.1.578.578,0,0,0-.407-.134.633.633,0,0,0-.552.24,1.882,1.882,0,0,0-.294,1.15,1.749,1.749,0,0,0,.294,1.133.635.635,0,0,0,.552.239.651.651,0,0,0,.432-.133l.033-.024a2.939,2.939,0,0,1,1.108-.523,1.964,1.964,0,0,1,.411-.043,2.22,2.22,0,0,1,1.3.437l.046.034a2.219,2.219,0,0,1,.9,1.526,2.1,2.1,0,0,1-.788,1.859,5.113,5.113,0,0,1-3.44,1.261A5.249,5.249,0,0,1-742.757-12.244Zm-11.38.073a4.883,4.883,0,0,1-1.981-2.079,6.532,6.532,0,0,1-.658-3.005,6.416,6.416,0,0,1,.658-2.955,5.153,5.153,0,0,1,1.9-2.081,5.2,5.2,0,0,1,2.765-.749,4.814,4.814,0,0,1,2.754.794,5.044,5.044,0,0,1,1.707,1.939,5.3,5.3,0,0,1,.575,2.388,2.41,2.41,0,0,1-.52,1.589,2.119,2.119,0,0,1,.377.93,2.262,2.262,0,0,1-.511,1.744,5.056,5.056,0,0,1-1.872,1.629,5.429,5.429,0,0,1-2.425.538A5.623,5.623,0,0,1-754.138-12.171Zm-20.179,0A4.883,4.883,0,0,1-776.3-14.25a6.532,6.532,0,0,1-.658-3.005,6.416,6.416,0,0,1,.658-2.955,5.153,5.153,0,0,1,1.9-2.081,5.2,5.2,0,0,1,2.765-.749,4.815,4.815,0,0,1,2.754.794,5.044,5.044,0,0,1,1.707,1.939,5.3,5.3,0,0,1,.575,2.388,2.407,2.407,0,0,1-.521,1.589,2.1,2.1,0,0,1,.377.93,2.257,2.257,0,0,1-.51,1.744,5.058,5.058,0,0,1-1.873,1.629,5.425,5.425,0,0,1-2.424.538A5.623,5.623,0,0,1-774.317-12.171Zm-42.4-.237a3.507,3.507,0,0,1-1.409-2.944,3.64,3.64,0,0,1,.906-2.433,4.763,4.763,0,0,1,.586-.564,2.223,2.223,0,0,1-.754-.747l-.022-.034a2.132,2.132,0,0,1-.2-1.814,2.2,2.2,0,0,1,1.237-1.278,8.55,8.55,0,0,1,1.653-.586,7.68,7.68,0,0,1,1.848-.231,5.015,5.015,0,0,1,3.274.956,4.163,4.163,0,0,1,1.319,3.417v3.38a1.647,1.647,0,0,1,.935,1.482,2.134,2.134,0,0,1-1.76,2.146,4.577,4.577,0,0,1-1,.12,2.76,2.76,0,0,1-1.556-.412c-.083.031-.167.06-.252.087a7.062,7.062,0,0,1-1.793.323h-.031l-.172,0A4.585,4.585,0,0,1-816.72-12.407Zm-25.5,0a3.508,3.508,0,0,1-1.41-2.944,3.641,3.641,0,0,1,.907-2.433,4.763,4.763,0,0,1,.586-.564,2.234,2.234,0,0,1-.755-.747c-.007-.011-.013-.022-.021-.034a2.126,2.126,0,0,1-.2-1.814,2.192,2.192,0,0,1,1.237-1.278,8.529,8.529,0,0,1,1.653-.586,7.673,7.673,0,0,1,1.847-.231,5.015,5.015,0,0,1,3.274.956,4.164,4.164,0,0,1,1.32,3.417v3.38a1.647,1.647,0,0,1,.935,1.482,2.136,2.136,0,0,1-1.76,2.146,4.629,4.629,0,0,1-1,.119,2.765,2.765,0,0,1-1.556-.412c-.082.031-.166.06-.251.087a7.075,7.075,0,0,1-1.793.323h-.031l-.172,0A4.585,4.585,0,0,1-842.22-12.407Zm-24.4.571a2.31,2.31,0,0,1-.9-.742l-.617-.726a2.129,2.129,0,0,1-2.175,1.63h-.034a2.151,2.151,0,0,1-2.247-2.248v-10.71a2.142,2.142,0,0,1,2.247-2.231h.034a2.143,2.143,0,0,1,2.248,2.231v2.982l.259-.265a2.86,2.86,0,0,1,.929-.736,2.578,2.578,0,0,1,1.12-.268,2.133,2.133,0,0,1,1.927,1.118,2.123,2.123,0,0,1-.453,2.557c-.023.026-.048.051-.073.076l-1.659,1.606,2.2,2.5c.021.024.041.05.061.075a2.033,2.033,0,0,1,.16,2.412,2.158,2.158,0,0,1-1.841.974A2.8,2.8,0,0,1-866.623-11.837Zm152.992-2.155v-6.545a2.2,2.2,0,0,1,2.3-2.3,2.366,2.366,0,0,1,1.156.3,4.353,4.353,0,0,1,2.039-.5,2.307,2.307,0,0,1,2.537,2.333,2.1,2.1,0,0,1-.74,1.675,2.089,2.089,0,0,1-1.344.49c-.05,0-.1,0-.152-.005-.035,0-.07-.006-.105-.011s-.07-.009-.143-.013-.155-.006-.24-.006a.779.779,0,0,0-.589.216.621.621,0,0,0-.188.528v3.841a2.192,2.192,0,0,1-2.265,2.317A2.192,2.192,0,0,1-713.631-13.991Zm-50.576,0v-4.6a2.148,2.148,0,0,1-.873-.433,2.1,2.1,0,0,1-.742-1.651,2.036,2.036,0,0,1,1.615-2.115v-.078a4.649,4.649,0,0,1,.514-2.312,3.317,3.317,0,0,1,1.639-1.472A5.007,5.007,0,0,1-760.139-27a4.556,4.556,0,0,1,1.452.2,2.058,2.058,0,0,1,1.409,2.027c0,.029,0,.058,0,.088a2.3,2.3,0,0,1-.507,1.337,1.947,1.947,0,0,1-.961.63,2.148,2.148,0,0,1,.713.38,2.09,2.09,0,0,1,.758,1.661,2.1,2.1,0,0,1-.742,1.651,2.37,2.37,0,0,1-1.558.511h-.114v4.518a2.184,2.184,0,0,1-2.248,2.317A2.192,2.192,0,0,1-764.206-13.991Zm-21.3,0v-6.545a2.2,2.2,0,0,1,2.3-2.3,2.369,2.369,0,0,1,1.157.3,4.35,4.35,0,0,1,2.039-.5,2.307,2.307,0,0,1,2.537,2.333,2.1,2.1,0,0,1-.74,1.675,2.092,2.092,0,0,1-1.345.49q-.076,0-.151-.005c-.035,0-.07-.006-.105-.011s-.07-.009-.143-.013-.155-.006-.24-.006a.778.778,0,0,0-.589.216.621.621,0,0,0-.188.528v3.841a2.192,2.192,0,0,1-2.265,2.317A2.192,2.192,0,0,1-785.507-13.991Zm-13.09,0V-24.276a2.2,2.2,0,0,1,2.3-2.3h4.522a5.386,5.386,0,0,1,3.577,1.136,4.5,4.5,0,0,1,1.459,3.629,4.577,4.577,0,0,1-1.446,3.651A5.327,5.327,0,0,1-791.776-17h-2.274v3a2.2,2.2,0,0,1-2.281,2.317A2.192,2.192,0,0,1-798.6-13.991Zm4.547-7.484h2.087a1.562,1.562,0,0,0,.568-.077,1.153,1.153,0,0,0,.023-.258,1.128,1.128,0,0,0-.019-.227,1.621,1.621,0,0,0-.572-.076h-2.087Zm-31.628,7.991-.047-.165-.053.187a.047.047,0,0,0,0,.011,2.332,2.332,0,0,1-2.273,1.776,2.312,2.312,0,0,1-2.287-1.75L-832.329-20s0-.01,0-.014a2.32,2.32,0,0,1,.116-1.763,1.975,1.975,0,0,1,1.8-1.058h.017a2.374,2.374,0,0,1,2.341,1.776l0,.012.044.156.039-.135a2.266,2.266,0,0,1,2.248-1.808,2.265,2.265,0,0,1,2.248,1.81l.038.133.039-.136a2.329,2.329,0,0,1,2.35-1.807,1.976,1.976,0,0,1,1.789,1.021,2.29,2.29,0,0,1,.144,1.8l-.005.018-2.005,6.576a2.311,2.311,0,0,1-2.285,1.745A2.276,2.276,0,0,1-825.678-13.484Zm-23.9-.508V-18a1.2,1.2,0,0,0-.1-.612.186.186,0,0,0-.021-.02.321.321,0,0,0-.1-.011c-.225,0-.284.061-.326.106s-.129.134-.129.485v4.063a2.192,2.192,0,0,1-2.265,2.317,2.192,2.192,0,0,1-2.265-2.317v-6.545a2.152,2.152,0,0,1,2.2-2.3,2.643,2.643,0,0,1,1.187.252,4.1,4.1,0,0,1,1.924-.456,4.324,4.324,0,0,1,3.172,1.275,4.721,4.721,0,0,1,1.236,3.438v4.334a2.192,2.192,0,0,1-2.265,2.317A2.184,2.184,0,0,1-849.58-13.991Zm-11.8,0v-6.545a2.359,2.359,0,0,1,.51-1.521l-.045-.045a2.468,2.468,0,0,1-.737-1.783,2.469,2.469,0,0,1,.737-1.783,2.471,2.471,0,0,1,1.783-.737,2.452,2.452,0,0,1,1.767.737,2.471,2.471,0,0,1,.736,1.783,2.468,2.468,0,0,1-.737,1.783l-.024.024a2.359,2.359,0,0,1,.524,1.542v6.545a2.184,2.184,0,0,1-2.248,2.317A2.192,2.192,0,0,1-861.378-13.991Z" transform="translate(987.3 97.175)" fill="#fff"/>
    <path id="パス_84834" data-name="パス 84834" d="M33.231,4.028a2.591,2.591,0,0,1-1.776-.583A2.073,2.073,0,0,1,30.793,1.8V-13.091H28.62a20.384,20.384,0,0,1-6.519-.848,5.792,5.792,0,0,1-3.5-3.127,16.081,16.081,0,0,1-1.06-6.572,15.879,15.879,0,0,1,1.113-6.731,5.793,5.793,0,0,1,3.551-3.074,21.213,21.213,0,0,1,6.413-.8h2.173v-7.579a2.073,2.073,0,0,1,.663-1.643,2.591,2.591,0,0,1,1.776-.583,2.673,2.673,0,0,1,1.828.583,2.073,2.073,0,0,1,.662,1.643v7.579H37.9a21.213,21.213,0,0,1,6.413.8,5.793,5.793,0,0,1,3.551,3.074,15.879,15.879,0,0,1,1.113,6.731,14.782,14.782,0,0,1-1.166,6.572,6.185,6.185,0,0,1-3.6,3.127,19.563,19.563,0,0,1-6.307.848H35.722V1.8a2.073,2.073,0,0,1-.662,1.643A2.673,2.673,0,0,1,33.231,4.028ZM4.876,1.59A2.141,2.141,0,0,1,3.737-.053a2.672,2.672,0,0,1,.451-1.908q1.06-1.7,2.438-3.975t2.65-4.611q1.272-2.332,2.014-4.081a2.866,2.866,0,0,1,1.431-1.378,2.053,2.053,0,0,1,2.014.106,2.318,2.318,0,0,1,1.245,1.378,2.523,2.523,0,0,1-.132,1.855A32.343,32.343,0,0,1,14.5-9.646Q13.621-7.9,12.561-6.016t-2.094,3.6Q9.434-.689,8.639.583A2.93,2.93,0,0,1,7,1.882,2.477,2.477,0,0,1,4.876,1.59ZM28.62-17.543h2.173V-29.786H28.62a14.813,14.813,0,0,0-3.71.371,2.868,2.868,0,0,0-1.961,1.67,10.689,10.689,0,0,0-.583,4.108,11.3,11.3,0,0,0,.53,3.975A2.786,2.786,0,0,0,24.8-17.941,14.38,14.38,0,0,0,28.62-17.543Zm7.1,0H37.9a13.313,13.313,0,0,0,3.631-.4,3.1,3.1,0,0,0,1.987-1.722,9.568,9.568,0,0,0,.636-3.975,11.154,11.154,0,0,0-.556-4.108,2.79,2.79,0,0,0-1.935-1.67,15.087,15.087,0,0,0-3.763-.371H35.722Zm-25.281-4.77q-1.166-.848-2.995-2.067t-3.26-2.014a2.058,2.058,0,0,1-.98-1.325,2.007,2.007,0,0,1,.291-1.7,2.27,2.27,0,0,1,1.458-1.139,3.123,3.123,0,0,1,1.882.238A17.06,17.06,0,0,1,8.851-29.23q1.166.716,2.306,1.457a18.1,18.1,0,0,1,1.881,1.378,2.432,2.432,0,0,1,.981,1.563,2.344,2.344,0,0,1-.4,1.829,2.666,2.666,0,0,1-1.51,1.06A1.941,1.941,0,0,1,10.441-22.313ZM13.2-34.185q-1.166-.848-2.995-2.067T7-38.266a2.154,2.154,0,0,1-1.007-1.325,1.938,1.938,0,0,1,.265-1.7,2.448,2.448,0,0,1,1.51-1.139,2.931,2.931,0,0,1,1.829.238A17.062,17.062,0,0,1,11.607-41.1q1.166.716,2.306,1.484t1.934,1.352A2.625,2.625,0,0,1,16.8-36.7a2.164,2.164,0,0,1-.424,1.828,2.45,2.45,0,0,1-1.458,1.06A2.078,2.078,0,0,1,13.2-34.185ZM106.318,3.657a19.27,19.27,0,0,1-5.3-.583,4.584,4.584,0,0,1-2.809-2.041,8.229,8.229,0,0,1-.848-4.108v-2.6h-1.59a17.1,17.1,0,0,1-5.459-.689,4.56,4.56,0,0,1-2.756-2.359,11,11,0,0,1-.795-4.637v-2.491a11,11,0,0,1,.795-4.637,4.468,4.468,0,0,1,2.756-2.332,17.738,17.738,0,0,1,5.459-.662h1.59v-2.332H96.089a15.717,15.717,0,0,1-5.221-.689,4.471,4.471,0,0,1-2.65-2.332,10.983,10.983,0,0,1-.769-4.558v-1.8a10.983,10.983,0,0,1,.769-4.558,4.471,4.471,0,0,1,2.65-2.332,15.717,15.717,0,0,1,5.221-.689h6.731a15.717,15.717,0,0,1,5.22.689,4.471,4.471,0,0,1,2.65,2.332,10.983,10.983,0,0,1,.768,4.558v1.8a10.983,10.983,0,0,1-.768,4.558,4.471,4.471,0,0,1-2.65,2.332,15.717,15.717,0,0,1-5.22.689h-1.431v2.332h1.961a17.7,17.7,0,0,1,5.485.662,4.464,4.464,0,0,1,2.729,2.332,11,11,0,0,1,.795,4.637v2.491a11,11,0,0,1-.795,4.637,4.558,4.558,0,0,1-2.729,2.359,17.056,17.056,0,0,1-5.485.689h-1.961V-3.6q0,2.12.98,2.73a8.292,8.292,0,0,0,3.9.609A12.451,12.451,0,0,0,109.048-.5a2.6,2.6,0,0,0,1.484-.874,4.6,4.6,0,0,0,.769-1.908,1.615,1.615,0,0,1,1.087-1.166,2.7,2.7,0,0,1,1.669,0,1.774,1.774,0,0,1,1.272,2.491,6.309,6.309,0,0,1-2.73,4.425A12.827,12.827,0,0,1,106.318,3.657Zm-30.422.9A2.184,2.184,0,0,1,74.412,4a1.9,1.9,0,0,1-.636-1.51V-18.444q-1.749.159-3.366.318t-2.889.265a2.449,2.449,0,0,1-1.7-.451,2.057,2.057,0,0,1-.742-1.458,1.917,1.917,0,0,1,.53-1.537,2.332,2.332,0,0,1,1.59-.636Q67.734-22,68.29-22t1.14-.053q.9-1.219,1.961-2.809t2.12-3.339q-1.007-.795-2.359-1.722t-2.676-1.855q-1.325-.928-2.279-1.51A2.084,2.084,0,0,1,65.27-34.5a1.78,1.78,0,0,1,.238-1.537,1.917,1.917,0,0,1,1.272-1.007,1.951,1.951,0,0,1,1.59.265q.318.212.689.451t.795.5q.636-1.113,1.378-2.491t1.4-2.65q.662-1.272,1.034-2.067A2.066,2.066,0,0,1,74.915-44.2a2.142,2.142,0,0,1,1.67.159,1.819,1.819,0,0,1,1.087,1.193,1.941,1.941,0,0,1-.186,1.563q-.477.954-1.245,2.332t-1.59,2.783q-.822,1.4-1.563,2.57.689.477,1.352.954t1.245.9q1.007-1.749,1.882-3.339T79.076-37.9a1.924,1.924,0,0,1,1.3-1.007,2.132,2.132,0,0,1,1.617.212A2.09,2.09,0,0,1,83-37.418a1.968,1.968,0,0,1-.212,1.537Q81.143-32.86,78.864-29.2t-4.452,6.784q1.537-.106,3.021-.239t2.809-.185q-.212-.53-.451-1.034a5.712,5.712,0,0,0-.5-.874,1.754,1.754,0,0,1-.106-1.564A1.968,1.968,0,0,1,80.189-27.4a2.109,2.109,0,0,1,1.564-.132A2.006,2.006,0,0,1,82.945-26.5q.53.9,1.245,2.252t1.378,2.677A23.5,23.5,0,0,1,86.6-19.239a1.742,1.742,0,0,1,.026,1.537,2.574,2.574,0,0,1-1.139,1.113,2.109,2.109,0,0,1-1.563.132,1.819,1.819,0,0,1-1.14-1.087q-.212-.424-.4-.875a8.87,8.87,0,0,0-.451-.927l-1.882.239q-1.034.133-2.094.239V2.491A1.944,1.944,0,0,1,77.354,4,2.087,2.087,0,0,1,75.9,4.558ZM66.568-1.749a1.839,1.839,0,0,1-1.087-1.034,1.689,1.689,0,0,1-.026-1.458A35.514,35.514,0,0,0,67.31-8.957q.848-2.65,1.325-4.876a1.98,1.98,0,0,1,.848-1.3,1.848,1.848,0,0,1,1.484-.185,1.943,1.943,0,0,1,1.193.768,1.753,1.753,0,0,1,.238,1.511,53.364,53.364,0,0,1-1.378,5.3,37.288,37.288,0,0,1-1.855,4.823A2.157,2.157,0,0,1,68.078-1.8,2.024,2.024,0,0,1,66.568-1.749ZM84.8-4.187a1.908,1.908,0,0,1-1.643,0A2.139,2.139,0,0,1,82.1-5.406q-.583-1.643-1.378-3.9t-1.325-4.054a1.825,1.825,0,0,1,.159-1.564,2.023,2.023,0,0,1,1.272-.875,2.082,2.082,0,0,1,1.51.132,1.762,1.762,0,0,1,.875,1.246q.318,1.007.822,2.385t1.06,2.756q.556,1.378.927,2.491a1.927,1.927,0,0,1-.026,1.563A1.841,1.841,0,0,1,84.8-4.187Zm16.589-5.035h1.961a12.822,12.822,0,0,0,2.994-.265,2.035,2.035,0,0,0,1.431-1.113,6.086,6.086,0,0,0,.4-2.491h-6.784Zm-5.618,0h1.59v-3.869H90.9a6.6,6.6,0,0,0,.45,2.491,2.035,2.035,0,0,0,1.431,1.113A12.822,12.822,0,0,0,95.771-9.222Zm5.618-7.155h6.784q-.053-2.332-1.007-2.968a7.663,7.663,0,0,0-3.816-.636h-1.961Zm-10.494,0h6.466v-3.6h-1.59a7.663,7.663,0,0,0-3.816.636Q91-18.709,90.9-16.377Zm10.494-12.932h1.431a7.163,7.163,0,0,0,3.578-.609q.927-.609.98-2.888h-5.989Zm-5.3,0h1.272v-3.5H91.478q.106,2.279,1.034,2.888A7.163,7.163,0,0,0,96.089-29.309Zm5.3-6.678h5.989q-.053-2.12-1.007-2.7a7.463,7.463,0,0,0-3.551-.583h-1.431Zm-9.858,0h5.83v-3.286H96.089a7.289,7.289,0,0,0-3.525.583Q91.637-38.107,91.531-35.987Zm62.275,17.861a21.083,21.083,0,0,1-6.652-.822,5.253,5.253,0,0,1-3.259-2.836,14.274,14.274,0,0,1-.9-5.671v-6.784a14.274,14.274,0,0,1,.9-5.671,5.166,5.166,0,0,1,3.259-2.809,21.743,21.743,0,0,1,6.652-.795h5.936a21.7,21.7,0,0,1,6.678.795,5.256,5.256,0,0,1,3.26,2.809,13.909,13.909,0,0,1,.927,5.671v6.784a13.909,13.909,0,0,1-.927,5.671,5.346,5.346,0,0,1-3.26,2.836,21.042,21.042,0,0,1-6.678.822Zm.159,22.737a2.486,2.486,0,0,1-1.749-.689,2.345,2.345,0,0,1-.742-1.8V-11.024h-7.685a21.882,21.882,0,0,1-6.89-.848,5.475,5.475,0,0,1-3.392-2.995,14.874,14.874,0,0,1-.954-5.91v-18.55a2.2,2.2,0,0,1,.689-1.7,2.339,2.339,0,0,1,1.643-.636,2.339,2.339,0,0,1,1.643.636,2.2,2.2,0,0,1,.689,1.7v18.5a9.483,9.483,0,0,0,.5,3.524,2.826,2.826,0,0,0,1.935,1.617,15.128,15.128,0,0,0,4.081.424h32.277a1.881,1.881,0,0,1,1.457.609,2.157,2.157,0,0,1,.557,1.51,2.184,2.184,0,0,1-.557,1.484,1.844,1.844,0,0,1-1.457.636H156.456V2.12a2.388,2.388,0,0,1-.715,1.8A2.46,2.46,0,0,1,153.965,4.611Zm-17.278-2.65a2.983,2.983,0,0,1-2.067.5,2.4,2.4,0,0,1-1.749-1.033A2.41,2.41,0,0,1,132.5-.451a2.244,2.244,0,0,1,1.113-1.51q1.431-.848,3.18-2.067t3.419-2.57a36.083,36.083,0,0,0,2.783-2.464,2.262,2.262,0,0,1,1.722-.636,2.188,2.188,0,0,1,1.564.689,2.14,2.14,0,0,1,.742,1.616,2.307,2.307,0,0,1-.742,1.67q-1.166,1.166-2.835,2.57T140.026-.4Q138.277.954,136.687,1.961Zm34.5.053q-1.537-1.007-3.339-2.359t-3.445-2.783q-1.643-1.431-2.862-2.6a2.392,2.392,0,0,1-.689-1.67,2.213,2.213,0,0,1,.689-1.616,2.218,2.218,0,0,1,1.59-.689,2.135,2.135,0,0,1,1.7.636A36.078,36.078,0,0,0,167.613-6.6q1.669,1.352,3.445,2.6t3.207,2.094A2.146,2.146,0,0,1,175.35-.424a2.346,2.346,0,0,1-.451,1.855,2.36,2.36,0,0,1-1.7,1.007A2.847,2.847,0,0,1,171.19,2.014ZM147.817-29.15h17.967v-3.5H147.817ZM153.859-22h5.883a18.309,18.309,0,0,0,3.577-.265,2.688,2.688,0,0,0,1.776-1.06,4.837,4.837,0,0,0,.636-2.332H147.87a4.837,4.837,0,0,0,.636,2.332,2.708,2.708,0,0,0,1.8,1.06A18.377,18.377,0,0,0,153.859-22ZM147.87-36.146h17.861a4.31,4.31,0,0,0-.663-2.279,2.8,2.8,0,0,0-1.8-.98,19.9,19.9,0,0,0-3.524-.238h-5.883a20.374,20.374,0,0,0-3.551.238,2.716,2.716,0,0,0-1.8.98A4.5,4.5,0,0,0,147.87-36.146Z" transform="translate(106 53)" fill="#222"/>
    <path id="パス_84833" data-name="パス 84833" d="M-89.692.255A5.331,5.331,0,0,1-92.548-.51a5.26,5.26,0,0,1-1.947-2.159A7.18,7.18,0,0,1-95.2-5.95a7.234,7.234,0,0,1,.705-3.289,5.308,5.308,0,0,1,1.947-2.176,5.286,5.286,0,0,1,2.856-.773,5.243,5.243,0,0,1,2.847.773A5.329,5.329,0,0,1-84.907-9.24,7.234,7.234,0,0,1-84.2-5.95a7.18,7.18,0,0,1-.705,3.281A5.28,5.28,0,0,1-86.845-.51,5.287,5.287,0,0,1-89.692.255Zm0-1.53a3.6,3.6,0,0,0,2.032-.578A3.811,3.811,0,0,0-86.3-3.477a5.837,5.837,0,0,0,.485-2.474,5.881,5.881,0,0,0-.485-2.49,3.811,3.811,0,0,0-1.36-1.623,3.6,3.6,0,0,0-2.032-.578,3.6,3.6,0,0,0-2.032.578,3.868,3.868,0,0,0-1.368,1.623,5.794,5.794,0,0,0-.493,2.49,5.75,5.75,0,0,0,.493,2.474,3.868,3.868,0,0,0,1.368,1.623A3.6,3.6,0,0,0-89.692-1.275ZM-79.05,0A.661.661,0,0,1-79.8-.748v-10.71a.654.654,0,0,1,.748-.731h.034a.654.654,0,0,1,.748.731v6.664L-75.4-7.735a1.4,1.4,0,0,1,.467-.391,1.078,1.078,0,0,1,.467-.119.645.645,0,0,1,.612.34q.187.34-.255.833l-2.686,2.6L-73.644-.9a.544.544,0,0,1,.093.672.655.655,0,0,1-.586.3A1.373,1.373,0,0,1-74.7-.025a.813.813,0,0,1-.34-.3l-3.23-3.808V-.748A.661.661,0,0,1-79.016,0Zm11.237,0q-.765,0-.765-.816V-7.361q0-.8.765-.8.748,0,.748.8V-.816Q-67.065,0-67.813,0Zm-.017-9.69a.984.984,0,0,1-.722-.3.984.984,0,0,1-.3-.723.984.984,0,0,1,.3-.722.984.984,0,0,1,.722-.3.964.964,0,0,1,.706.3.984.984,0,0,1,.3.722.984.984,0,0,1-.3.723A.964.964,0,0,1-67.83-9.69ZM-61.217,0q-.765,0-.765-.816V-7.361q0-.8.7-.8.714,0,.731.408l.034.646a3.221,3.221,0,0,1,.96-.884,2.576,2.576,0,0,1,1.385-.374,2.809,2.809,0,0,1,2.1.825,3.275,3.275,0,0,1,.807,2.389V-.816q0,.816-.765.816-.748,0-.748-.816V-4.828a2.355,2.355,0,0,0-.476-1.607A1.582,1.582,0,0,0-58.5-6.97a1.864,1.864,0,0,0-1.411.569,2.111,2.111,0,0,0-.544,1.522V-.816Q-60.452,0-61.217,0Zm13.243.136a3.176,3.176,0,0,1-2.049-.57,2.043,2.043,0,0,1-.808-1.743,2.123,2.123,0,0,1,.535-1.445,3.649,3.649,0,0,1,1.377-.96,4.512,4.512,0,0,1,1.743-.349,2.823,2.823,0,0,1,.969.094,2.4,2.4,0,0,1,.765.365v-1.02a1.48,1.48,0,0,0-.4-1.241,2.115,2.115,0,0,0-1.233-.289,4.659,4.659,0,0,0-1.113.145,5.954,5.954,0,0,0-1.1.382A1.2,1.2,0,0,1-49.9-6.4a.622.622,0,0,1-.425-.314.635.635,0,0,1-.076-.552.75.75,0,0,1,.451-.417,7,7,0,0,1,1.385-.493,6.184,6.184,0,0,1,1.487-.187,3.653,3.653,0,0,1,2.329.62,2.772,2.772,0,0,1,.765,2.253v4.1a.878.878,0,0,0,.042.349.35.35,0,0,0,.213.127,3.148,3.148,0,0,0,.442.11q.238.043.238.179a.639.639,0,0,1-.578.68,3.093,3.093,0,0,1-.68.085,1.2,1.2,0,0,1-.782-.2A1.191,1.191,0,0,1-45.407-.8a2.8,2.8,0,0,1-1.156.68A5.519,5.519,0,0,1-47.974.136Zm.017-1.343a4.432,4.432,0,0,0,1.3-.213,2.175,2.175,0,0,0,.927-.561,1.123,1.123,0,0,0,.306-.876.763.763,0,0,0-.485-.68,2.492,2.492,0,0,0-1.147-.17,3.306,3.306,0,0,0-1.156.23,2.292,2.292,0,0,0-.841.553,1.1,1.1,0,0,0-.314.765.85.85,0,0,0,.391.723A1.749,1.749,0,0,0-47.957-1.207ZM-36.754,0a.834.834,0,0,1-.85-.68l-1.989-6.579a.881.881,0,0,1,.009-.655.478.478,0,0,1,.467-.246h.017a.867.867,0,0,1,.9.7l1.479,5.219,1.5-5.219a.782.782,0,0,1,.8-.7.782.782,0,0,1,.8.7l1.479,5.219,1.5-5.219a.837.837,0,0,1,.9-.7.5.5,0,0,1,.476.246.849.849,0,0,1,.017.655L-31.263-.68a.834.834,0,0,1-.85.68.79.79,0,0,1-.816-.7l-1.5-5.253L-35.921-.7A.83.83,0,0,1-36.754,0Zm14.28.136a3.176,3.176,0,0,1-2.049-.57,2.043,2.043,0,0,1-.807-1.743,2.123,2.123,0,0,1,.535-1.445,3.649,3.649,0,0,1,1.377-.96,4.512,4.512,0,0,1,1.743-.349,2.823,2.823,0,0,1,.969.094,2.4,2.4,0,0,1,.765.365v-1.02a1.48,1.48,0,0,0-.4-1.241,2.115,2.115,0,0,0-1.233-.289,4.659,4.659,0,0,0-1.113.145,5.954,5.954,0,0,0-1.1.382,1.2,1.2,0,0,1-.612.094.622.622,0,0,1-.425-.314.635.635,0,0,1-.076-.552.75.75,0,0,1,.451-.417,7,7,0,0,1,1.385-.493,6.184,6.184,0,0,1,1.487-.187,3.653,3.653,0,0,1,2.329.62,2.772,2.772,0,0,1,.765,2.253v4.1a.878.878,0,0,0,.042.349.35.35,0,0,0,.212.127,3.148,3.148,0,0,0,.442.11q.238.043.238.179a.639.639,0,0,1-.578.68,3.093,3.093,0,0,1-.68.085,1.2,1.2,0,0,1-.782-.2A1.191,1.191,0,0,1-19.907-.8a2.8,2.8,0,0,1-1.156.68A5.519,5.519,0,0,1-22.474.136Zm.017-1.343a4.432,4.432,0,0,0,1.3-.213,2.175,2.175,0,0,0,.927-.561,1.123,1.123,0,0,0,.306-.876.763.763,0,0,0-.485-.68,2.492,2.492,0,0,0-1.147-.17,3.306,3.306,0,0,0-1.156.23,2.292,2.292,0,0,0-.842.553,1.1,1.1,0,0,0-.314.765.85.85,0,0,0,.391.723A1.749,1.749,0,0,0-22.457-1.207ZM-5.032,0Q-5.8,0-5.8-.816V-11.1a.706.706,0,0,1,.8-.8H-.476a3.931,3.931,0,0,1,2.609.782A3.073,3.073,0,0,1,3.06-8.636,3.149,3.149,0,0,1,2.133-6.12a3.874,3.874,0,0,1-2.609.8H-4.25V-.816Q-4.25,0-5.032,0Zm.782-6.8H-.663A2.423,2.423,0,0,0,.892-7.234a1.7,1.7,0,0,0,.536-1.4,1.654,1.654,0,0,0-.536-1.377,2.458,2.458,0,0,0-1.556-.425H-4.25ZM8.058,0q-.765,0-.765-.816V-7.361a.706.706,0,0,1,.8-.8.838.838,0,0,1,.476.136.569.569,0,0,1,.2.51v.629A2.628,2.628,0,0,1,9.8-7.956a2.867,2.867,0,0,1,1.488-.408q1.037,0,1.037.833a.635.635,0,0,1-.2.518.594.594,0,0,1-.434.145q-.119-.017-.272-.026T11.1-6.9a2.277,2.277,0,0,0-1.615.621,2.121,2.121,0,0,0-.663,1.623V-.816Q8.823,0,8.058,0Zm11.7.187a4.118,4.118,0,0,1-2.04-.493A3.386,3.386,0,0,1,16.337-1.76a5.031,5.031,0,0,1-.493-2.32,4.91,4.91,0,0,1,.493-2.27,3.662,3.662,0,0,1,1.351-1.488,3.709,3.709,0,0,1,1.98-.527,3.329,3.329,0,0,1,1.913.535A3.548,3.548,0,0,1,22.789-6.46a3.8,3.8,0,0,1,.417,1.717.812.812,0,0,1-.2.654.942.942,0,0,1-.595.162H17.34a3.052,3.052,0,0,0,.688,2.065,2.263,2.263,0,0,0,1.743.706,2.173,2.173,0,0,0,1.955-1.037,1.492,1.492,0,0,1,.51-.382.529.529,0,0,1,.51.093.677.677,0,0,1,.331.476.831.831,0,0,1-.229.629A3.562,3.562,0,0,1,21.514-.2,3.917,3.917,0,0,1,19.754.187ZM17.425-5.151h4.284a2.491,2.491,0,0,0-.68-1.428,1.866,1.866,0,0,0-1.377-.544,2.151,2.151,0,0,0-1.462.5A2.5,2.5,0,0,0,17.425-5.151ZM29.359,0q-.765,0-.765-.816V-6.834h-.816q-.8,0-.8-.663t.595-.663h1.02V-9.69a3.255,3.255,0,0,1,.323-1.581,1.8,1.8,0,0,1,.9-.816,3.508,3.508,0,0,1,1.343-.238,3.146,3.146,0,0,1,.978.128.563.563,0,0,1,.382.6.805.805,0,0,1-.17.476.609.609,0,0,1-.527.17q-.119-.017-.247-.025t-.247-.009a1.159,1.159,0,0,0-.892.357,1.553,1.553,0,0,0-.332,1.088V-8.16h1.6q.816,0,.816.663t-.8.663H30.107V-.816Q30.107,0,29.359,0ZM39.933.187a4.118,4.118,0,0,1-2.04-.493A3.386,3.386,0,0,1,36.516-1.76a5.031,5.031,0,0,1-.493-2.32,4.91,4.91,0,0,1,.493-2.27,3.662,3.662,0,0,1,1.352-1.488,3.709,3.709,0,0,1,1.98-.527,3.329,3.329,0,0,1,1.913.535A3.548,3.548,0,0,1,42.968-6.46a3.8,3.8,0,0,1,.416,1.717.812.812,0,0,1-.2.654.942.942,0,0,1-.6.162H37.519a3.052,3.052,0,0,0,.688,2.065,2.263,2.263,0,0,0,1.743.706,2.173,2.173,0,0,0,1.955-1.037,1.492,1.492,0,0,1,.51-.382.529.529,0,0,1,.51.093.677.677,0,0,1,.332.476.831.831,0,0,1-.229.629A3.562,3.562,0,0,1,41.693-.2,3.917,3.917,0,0,1,39.933.187ZM37.6-5.151h4.284a2.491,2.491,0,0,0-.68-1.428,1.866,1.866,0,0,0-1.377-.544,2.151,2.151,0,0,0-1.462.5A2.5,2.5,0,0,0,37.6-5.151ZM51.323.187a3.751,3.751,0,0,1-2-.536,3.741,3.741,0,0,1-1.377-1.5,4.763,4.763,0,0,1-.5-2.235,4.815,4.815,0,0,1,.5-2.244,3.728,3.728,0,0,1,1.377-1.5,3.751,3.751,0,0,1,2-.535,3.612,3.612,0,0,1,2.448.884.607.607,0,0,1,.3.544.68.68,0,0,1-.314.51.7.7,0,0,1-.51.187,1.549,1.549,0,0,1-.561-.255,2.073,2.073,0,0,0-1.36-.476,2.123,2.123,0,0,0-1.692.765,3.167,3.167,0,0,0-.654,2.125,3.139,3.139,0,0,0,.654,2.108,2.123,2.123,0,0,0,1.692.765,2.149,2.149,0,0,0,1.343-.442,1.517,1.517,0,0,1,.544-.272.674.674,0,0,1,.527.153.752.752,0,0,1,.323.51.614.614,0,0,1-.272.544A3.635,3.635,0,0,1,51.323.187ZM62,.187a2.871,2.871,0,0,1-1.751-.451,2.061,2.061,0,0,1-.6-1.726V-6.834H58.8q-.8,0-.8-.663a.644.644,0,0,1,.178-.5A.927.927,0,0,1,58.8-8.16h.85v-2.125q0-.8.765-.8.748,0,.748.8V-8.16H62.73q.8,0,.8.663t-.8.663H61.166v4.522a1.081,1.081,0,0,0,.3.892,1.448,1.448,0,0,0,.893.23h.1a3.218,3.218,0,0,1,.765.076q.306.077.306.536a.593.593,0,0,1-.467.638A4.045,4.045,0,0,1,62,.187Zm8.517,0a2.78,2.78,0,0,1-2.091-.825,3.3,3.3,0,0,1-.8-2.388V-7.361q0-.8.748-.8.765,0,.765.8v4.029a2.327,2.327,0,0,0,.476,1.59,1.563,1.563,0,0,0,1.224.536,1.891,1.891,0,0,0,1.419-.57,2.115,2.115,0,0,0,.553-1.538V-7.361q0-.8.765-.8.748,0,.748.8V-.816q0,.816-.68.816t-.731-.425l-.034-.629a3.126,3.126,0,0,1-.96.876A2.654,2.654,0,0,1,70.516.187ZM79.934,0q-.765,0-.765-.816V-7.361a.706.706,0,0,1,.8-.8.838.838,0,0,1,.476.136.569.569,0,0,1,.2.51v.629a2.628,2.628,0,0,1,1.028-1.071,2.867,2.867,0,0,1,1.488-.408q1.037,0,1.037.833a.635.635,0,0,1-.2.518.594.594,0,0,1-.434.145q-.119-.017-.272-.026T82.977-6.9a2.277,2.277,0,0,0-1.615.621A2.121,2.121,0,0,0,80.7-4.658V-.816Q80.7,0,79.934,0Zm11.7.187a4.118,4.118,0,0,1-2.04-.493A3.386,3.386,0,0,1,88.213-1.76a5.031,5.031,0,0,1-.493-2.32,4.91,4.91,0,0,1,.493-2.27,3.662,3.662,0,0,1,1.352-1.488,3.709,3.709,0,0,1,1.98-.527,3.329,3.329,0,0,1,1.912.535A3.548,3.548,0,0,1,94.665-6.46a3.8,3.8,0,0,1,.416,1.717.812.812,0,0,1-.2.654.942.942,0,0,1-.6.162H89.216A3.052,3.052,0,0,0,89.9-1.862a2.263,2.263,0,0,0,1.743.706A2.173,2.173,0,0,0,93.6-2.193a1.492,1.492,0,0,1,.51-.382.529.529,0,0,1,.51.093.677.677,0,0,1,.331.476.831.831,0,0,1-.229.629A3.562,3.562,0,0,1,93.39-.2,3.917,3.917,0,0,1,91.63.187ZM89.3-5.151h4.284a2.491,2.491,0,0,0-.68-1.428,1.866,1.866,0,0,0-1.377-.544,2.151,2.151,0,0,0-1.462.5A2.5,2.5,0,0,0,89.3-5.151Z" transform="translate(196 84)" fill="#222"/>
  </g>
  <g id="グループ_12054" data-name="グループ 12054" transform="translate(0 2.804)">
    <g id="グループ_12053" data-name="グループ 12053" clip-path="url(#clip-path)">
      <path id="パス_85245" data-name="パス 85245" d="M75.4,37.7A37.7,37.7,0,1,1,37.7,0,37.7,37.7,0,0,1,75.4,37.7" fill="#dc000c"/>
      <path id="パス_85246" data-name="パス 85246" d="M170.523,65.744c0,14.519-11.509,26.289-25.706,26.289s-25.706-11.77-25.706-26.289,11.509-26.289,25.706-26.289,25.706,11.77,25.706,26.289" transform="translate(-107.224 -35.518)" fill="#fff"/>
      <path id="パス_85247" data-name="パス 85247" d="M240.81,92.405a16.886,16.886,0,1,1-16.886-16.886A16.886,16.886,0,0,1,240.81,92.405" transform="translate(-186.376 -67.982)" fill="#dc000c"/>
    </g>
  </g>
</svg>
